<svg width="18" height="18" viewBox="0 0 18 18" fill="none" xmlns="http://www.w3.org/2000/svg">
<path d="M10.3831 9.00007L17.7026 1.72907C18.0825 1.35007 18.1014 0.717073 17.7423 0.314073C17.3842 -0.0879273 16.7845 -0.104927 16.4037 0.271073L8.99995 7.62607L1.59714 0.271073C1.21534 -0.105927 0.616602 -0.0879273 0.257546 0.314073C-0.10151 0.717073 -0.0825627 1.35007 0.298283 1.72907L7.61678 9.00007L0.298283 16.2721C-0.0825627 16.6501 -0.10151 17.2831 0.257546 17.6861C0.444179 17.8951 0.695234 18.0001 0.947237 18.0001C1.18029 18.0001 1.41335 17.9101 1.59714 17.7291L8.99995 10.3741L16.4037 17.7291C16.5865 17.9101 16.8196 18.0001 17.0527 18.0001C17.3047 18.0001 17.5557 17.8951 17.7423 17.6861C18.1014 17.2831 18.0825 16.6501 17.7026 16.2721L10.3831 9.00007" fill="white"/>
</svg>
