<svg width="18" height="18" viewBox="0 0 18 18" fill="none" xmlns="http://www.w3.org/2000/svg">
<path d="M5.65185 10.2801L2.01249 13.9194L1.99976 8.56522C1.99835 8.01367 1.54934 7.56749 0.997085 7.5682C0.444835 7.5689 -0.00134985 8.01792 6.43878e-05 8.57087L0.0184492 16.3264L0.0184491 16.3307C0.0184491 16.3377 0.0203937 16.3439 0.0223384 16.3501C0.0242828 16.3563 0.0262273 16.3625 0.0262273 16.3696C0.0311769 16.4848 0.0502688 16.6015 0.0955236 16.7104C0.197347 16.955 0.391094 17.1488 0.635753 17.2506C0.744648 17.2959 0.86132 17.315 0.976579 17.3199C0.982882 17.3202 0.988719 17.322 0.994601 17.3237C1.00125 17.3257 1.00796 17.3277 1.01547 17.3277H1.01971L8.77526 17.3461C9.05174 17.3468 9.30347 17.2351 9.48519 17.0533C9.66551 16.873 9.77723 16.6241 9.77794 16.349C9.77864 15.7968 9.33317 15.3485 8.78092 15.3464L3.4267 15.3336L11.6249 7.13545C11.6473 7.11307 11.6684 7.08989 11.6882 7.066L15.3276 3.42664L15.3403 8.78086C15.3417 9.3324 15.7907 9.77858 16.343 9.77788C16.8952 9.77717 17.3414 9.32816 17.34 8.7752L17.3216 1.01965V1.01541C17.3216 1.00834 17.3197 1.00215 17.3177 0.995963C17.3158 0.989776 17.3138 0.983589 17.3138 0.976518C17.3089 0.86126 17.2898 0.744587 17.2445 0.635693C17.1427 0.391034 16.949 0.197286 16.7043 0.095463C16.5954 0.0502082 16.4787 0.0311163 16.3635 0.0261666C16.3572 0.0258348 16.3513 0.0241018 16.3454 0.0223556C16.3388 0.0203804 16.3321 0.0183884 16.3246 0.0183884L16.3203 0.0183882L8.56479 3.33674e-06C8.28831 -0.000703771 8.03658 0.111019 7.85485 0.292746C7.67454 0.473058 7.56282 0.72196 7.56211 0.997024C7.5614 1.54927 8.00688 1.99758 8.55913 1.9997L13.9133 2.01243L5.71515 10.2106C5.69277 10.233 5.67167 10.2562 5.65185 10.2801Z" fill="white"/>
</svg>
